<svg width="12" height="12" viewBox="0 0 12 12" fill="none" xmlns="http://www.w3.org/2000/svg">
<path fill-rule="evenodd" clip-rule="evenodd" d="M5.99997 0.666672C4.52663 0.666672 3.3333 1.86001 3.3333 3.33334C3.3333 4.80667 4.52663 6 5.99997 6C7.4733 6 8.66663 4.80667 8.66663 3.33334C8.66663 1.86001 7.4733 0.666672 5.99997 0.666672ZM7.33332 3.33334C7.33332 2.60001 6.73332 2.00001 5.99999 2.00001C5.26665 2.00001 4.66666 2.60001 4.66666 3.33334C4.66666 4.06667 5.26665 4.66667 5.99999 4.66667C6.73332 4.66667 7.33332 4.06667 7.33332 3.33334ZM10 9.33334C9.86668 8.86001 7.80001 8.00001 6.00001 8.00001C4.20001 8.00001 2.13335 8.86001 2.00001 9.34001V10H10V9.33334ZM0.666656 9.33334C0.666656 7.56001 4.21999 6.66667 5.99999 6.66667C7.77999 6.66667 11.3333 7.56001 11.3333 9.33334V11.3333H0.666656V9.33334Z" fill="#2F80ED"/>
</svg>
